{"accessors":[{"bufferView":0,"componentType":5126,"count":36,"max":[0.5,2.5,0.49999475479126],"min":[-0.5,0.0,-0.5],"normalized":false,"type":"VEC3"},{"bufferView":1,"componentType":5126,"count":36,"max":[1.0,0.0000305817193293478,1.0,1.0],"min":[-1.0,-0.0000618696212768555,-0.0000304543591482798,-1.0],"normalized":false,"type":"VEC4"},{"bufferView":2,"componentType":5126,"count":36,"max":[0.00000446887588623213,1.0,1.0],"min":[-1.0,-1.0,-0.000122070327051915],"normalized":false,"type":"VEC3"},{"bufferView":3,"componentType":5126,"count":36,"max":[0.999984741210938,0.499992370605469],"min":[0.0,0.0],"normalized":false,"type":"VEC2"},{"bufferView":4,"componentType":5123,"count":54,"max":[35.0],"min":[0.0],"normalized":false,"type":"SCALAR"},{"bufferView":5,"componentType":5126,"count":16,"max":[0.5,2.5,0.49999475479126],"min":[-0.5,0.0,-0.5],"normalized":false,"type":"VEC3"},{"bufferView":6,"componentType":5126,"count":16,"max":[1.0,0.0000152590218931437,0.704692304134369,1.0],"min":[0.709497332572937,-0.00472767651081085,-0.0000152586571857682,1.0],"normalized":false,"type":"VEC4"},{"bufferView":7,"componentType":5126,"count":16,"max":[0.0000152586571857682,1.0,0.577385544776917],"min":[-0.577322423458099,-1.0,0.0000239175878959941],"normalized":false,"type":"VEC3"},{"bufferView":8,"componentType":5126,"count":16,"max":[0.999984741210938,0.499992370605469],"min":[0.0,0.0],"normalized":false,"type":"VEC2"},{"bufferView":9,"componentType":5123,"count":24,"max":[15.0],"min":[0.0],"normalized":false,"type":"SCALAR"},{"bufferView":10,"componentType":5126,"count":12,"max":[0.5,2.5,0.49999475479126],"min":[-0.5,0.0,-0.5],"normalized":false,"type":"VEC3"},{"bufferView":11,"componentType":5126,"count":12,"max":[1.0,0.0000152590218931437,0.0000152586571857682,1.0],"min":[1.0,0.0000152590218931437,-0.0000152586571857682,1.0],"normalized":false,"type":"VEC4"},{"bufferView":12,"componentType":5126,"count":12,"max":[0.0000152586571857682,1.0,0.0000239175878959941],"min":[-0.0000152586571857682,-1.0,0.0000239175878959941],"normalized":false,"type":"VEC3"},{"bufferView":13,"componentType":5126,"count":12,"max":[0.999984741210938,0.499992370605469],"min":[0.0,0.0],"normalized":false,"type":"VEC2"},{"bufferView":14,"componentType":5123,"count":18,"max":[11.0],"min":[0.0],"normalized":false,"type":"SCALAR"},{"bufferView":15,"componentType":5126,"count":24,"max":[0.5,2.5,0.49999475479126],"min":[-0.5,0.0,-0.5],"normalized":false,"type":"VEC3"},{"bufferView":16,"componentType":5126,"count":24,"max":[1.0,0.0000152590218931437,0.000047936900955392,1.0],"min":[1.0,0.000000000731470217729679,-0.0000152586571857682,-1.0],"normalized":false,"type":"VEC4"},{"bufferView":17,"componentType":5126,"count":24,"max":[0.0000152586571857682,1.0,1.0],"min":[-0.000047936900955392,-1.0,0.0000239175878959941],"normalized":false,"type":"VEC3"},{"bufferView":18,"componentType":5126,"count":24,"max":[0.999984741210938,0.499992370605469],"min":[0.0,0.0],"normalized":false,"type":"VEC2"},{"bufferView":19,"componentType":5123,"count":36,"max":[23.0],"min":[0.0],"normalized":false,"type":"SCALAR"}],"asset":{"generator":"Godot Engine v4.5.1.stable.steam@f62fdbde15035c5576dad93e586201f4d41ef0cb","version":"2.0"},"bufferViews":[{"buffer":0,"byteLength":432,"byteStride":12,"target":34962},{"buffer":0,"byteLength":576,"byteOffset":432,"byteStride":16,"target":34962},{"buffer":0,"byteLength":432,"byteOffset":1008,"byteStride":12,"target":34962},{"buffer":0,"byteLength":288,"byteOffset":1440,"byteStride":8,"target":34962},{"buffer":0,"byteLength":108,"byteOffset":1728,"target":34963},{"buffer":0,"byteLength":192,"byteOffset":1836,"byteStride":12,"target":34962},{"buffer":0,"byteLength":256,"byteOffset":2028,"byteStride":16,"target":34962},{"buffer":0,"byteLength":192,"byteOffset":2284,"byteStride":12,"target":34962},{"buffer":0,"byteLength":128,"byteOffset":2476,"byteStride":8,"target":34962},{"buffer":0,"byteLength":48,"byteOffset":2604,"target":34963},{"buffer":0,"byteLength":144,"byteOffset":2652,"byteStride":12,"target":34962},{"buffer":0,"byteLength":192,"byteOffset":2796,"byteStride":16,"target":34962},{"buffer":0,"byteLength":144,"byteOffset":2988,"byteStride":12,"target":34962},{"buffer":0,"byteLength":96,"byteOffset":3132,"byteStride":8,"target":34962},{"buffer":0,"byteLength":36,"byteOffset":3228,"target":34963},{"buffer":0,"byteLength":288,"byteOffset":3264,"byteStride":12,"target":34962},{"buffer":0,"byteLength":384,"byteOffset":3552,"byteStride":16,"target":34962},{"buffer":0,"byteLength":288,"byteOffset":3936,"byteStride":12,"target":34962},{"buffer":0,"byteLength":192,"byteOffset":4224,"byteStride":8,"target":34962},{"buffer":0,"byteLength":72,"byteOffset":4416,"target":34963}],"buffers":[{"byteLength":4488,"uri":"Node3D0.bin"}],"extensionsUsed":["GODOT_single_root"],"images":[{"uri":"textures%2FMaterial_001_albedo.png"},{"uri":"textures%2FMaterial_001_normal.png"}],"materials":[{"doubleSided":true,"extensions":{},"name":"Material_001","normalTexture":{"index":1,"scale":1.0},"pbrMetallicRoughness":{"baseColorFactor":[1.0,1.0,1.0,1.0],"baseColorTexture":{"index":0},"metallicFactor":0.0,"roughnessFactor":1.0}}],"meshes":[{"primitives":[{"attributes":{"NORMAL":2,"POSITION":0,"TANGENT":1,"TEXCOORD_0":3},"indices":4,"material":0,"mode":4}]},{"primitives":[{"attributes":{"NORMAL":7,"POSITION":5,"TANGENT":6,"TEXCOORD_0":8},"indices":9,"material":0,"mode":4}]},{"primitives":[{"attributes":{"NORMAL":12,"POSITION":10,"TANGENT":11,"TEXCOORD_0":13},"indices":14,"material":0,"mode":4}]},{"primitives":[{"attributes":{"NORMAL":17,"POSITION":15,"TANGENT":16,"TEXCOORD_0":18},"indices":19,"material":0,"mode":4}]}],"nodes":[{"children":[5],"name":"Node3D"},{"mesh":0,"name":"corner-in","translation":[-7.0,1.0,-1.0]},{"mesh":1,"name":"corner-out","translation":[-3.0,1.0,-1.0]},{"mesh":2,"name":"floor-ceil","translation":[1.0,1.0,-1.0]},{"mesh":3,"name":"wall","translation":[5.0,1.0,-1.0]},{"children":[1,2,3,4],"name":"MeshInstance3D"}],"samplers":[{"magFilter":9728,"minFilter":9986,"wrapS":10497,"wrapT":10497}],"scene":0,"scenes":[{"nodes":[0]}],"textures":[{"sampler":0,"source":0},{"sampler":0,"source":1}]}